<?xml version="1.0" standalone="no"?>
<!DOCTYPE svg PUBLIC "-//W3C//DTD SVG 20010904//EN"
 "http://www.w3.org/TR/2001/REC-SVG-20010904/DTD/svg10.dtd">
<svg version="1.0" xmlns="http://www.w3.org/2000/svg"
 width="50.000000pt" height="50.000000pt" viewBox="0 0 50.000000 50.000000"
 preserveAspectRatio="xMidYMid meet">

<g transform="translate(0.000000,50.000000) scale(0.100000,-0.100000)"
fill="#000000" stroke="none">
<path d="M206 387 c-20 -35 -36 -69 -36 -74 0 -26 130 -32 154 -7 15 14 16 14
16 -1 0 -10 10 -34 21 -55 16 -28 26 -36 40 -33 20 6 25 -6 10 -22 -11 -13 -2
-77 10 -69 18 10 10 108 -11 142 -25 41 -73 83 -80 72 -3 -5 -18 13 -33 39
-45 81 -50 81 -91 8z m77 -16 c15 -27 27 -52 27 -55 0 -3 -27 -6 -60 -6 -38 0
-60 4 -60 11 0 13 52 99 60 99 3 0 17 -22 33 -49z"/>
<path d="M234 343 c1 -27 16 -25 26 3 6 15 4 20 -10 20 -12 0 -17 -7 -16 -23z"/>
<path d="M131 321 c-39 -37 -61 -88 -61 -143 0 -60 16 -82 22 -32 3 22 1 43
-3 48 -15 17 -10 29 10 23 14 -3 24 5 39 32 18 33 37 101 28 101 -2 0 -18 -13
-35 -29z"/>
<path d="M155 250 c-8 -16 -15 -31 -15 -35 0 -3 50 -5 110 -5 61 0 110 2 110
5 0 4 -7 19 -15 35 -15 29 -17 30 -95 30 -78 0 -80 -1 -95 -30z"/>
<path d="M102 148 c2 -6 14 -13 27 -15 20 -3 21 -1 7 12 -17 18 -39 20 -34 3z"/>
<path d="M372 151 c4 -13 18 -16 19 -4 0 4 -5 9 -11 12 -7 2 -11 -2 -8 -8z"/>
<path d="M170 140 c0 -6 34 -10 83 -9 55 0 75 3 62 9 -28 12 -145 12 -145 0z"/>
<path d="M223 93 c15 -2 39 -2 55 0 15 2 2 4 -28 4 -30 0 -43 -2 -27 -4z"/>
<path d="M130 60 c0 -20 45 -50 87 -56 67 -10 153 22 153 57 0 5 -53 9 -120 9
-70 0 -120 -4 -120 -10z"/>
</g>
</svg>
