<svg width="75" height="17" viewBox="0 0 75 17" fill="none" xmlns="http://www.w3.org/2000/svg">
<path fill-rule="evenodd" clip-rule="evenodd" d="M36.5 17C41.1944 17 45 13.1944 45 8.5C45 3.80558 41.1944 0 36.5 0C31.8056 0 28 3.80558 28 8.5C28 13.1944 31.8056 17 36.5 17ZM36.5 15C40.0899 15 43 12.0899 43 8.5C43 4.91015 40.0899 2 36.5 2C32.9101 2 30 4.91015 30 8.5C30 12.0899 32.9101 15 36.5 15Z" fill="#EF8F32"/>
<path fill-rule="evenodd" clip-rule="evenodd" d="M66.5 17C71.1944 17 75 13.1944 75 8.5C75 3.80558 71.1944 0 66.5 0C61.8056 0 58 3.80558 58 8.5C58 13.1944 61.8056 17 66.5 17ZM66.5 15C70.0899 15 73 12.0899 73 8.5C73 4.91015 70.0899 2 66.5 2C62.9101 2 60 4.91015 60 8.5C60 12.0899 62.9101 15 66.5 15Z" fill="#EF8F32"/>
<circle cx="8.5" cy="8.5" r="8.5" fill="white"/>
<circle cx="8.5" cy="8.5" r="6.5" fill="#EF8F32"/>
</svg>
